<?xml version="1.0" standalone="no"?>
<!DOCTYPE svg PUBLIC "-//W3C//DTD SVG 20010904//EN"
 "http://www.w3.org/TR/2001/REC-SVG-20010904/DTD/svg10.dtd">
<svg version="1.0" xmlns="http://www.w3.org/2000/svg"
 width="500.000000pt" height="500.000000pt" viewBox="0 0 500.000000 500.000000"
 preserveAspectRatio="xMidYMid meet">
<metadata>
Created by potrace 1.11, written by Peter Selinger 2001-2013
</metadata>
<g transform="translate(0.000000,500.000000) scale(0.100000,-0.100000)"
fill="#000000" stroke="none">
<path d="M2375 4479 c-22 -5 -56 -11 -75 -15 -38 -6 -171 -56 -290 -109 -170
-76 -168 -75 -312 -73 -176 2 -243 -18 -320 -95 -83 -83 -118 -199 -118 -396
-1 -143 -14 -312 -45 -576 -14 -121 -28 -275 -32 -343 -3 -67 -9 -125 -13
-127 -13 -8 -127 25 -275 80 -296 110 -435 110 -524 2 -65 -79 -84 -222 -52
-385 12 -57 21 -118 22 -135 1 -71 166 -316 285 -421 47 -42 89 -76 94 -76 5
0 15 -6 23 -14 16 -17 223 -116 240 -116 7 0 37 -8 68 -17 l56 -18 6 -124 c4
-68 9 -126 12 -129 3 -3 12 4 21 16 8 12 19 22 24 22 5 0 9 -55 9 -122 0 -156
11 -317 22 -324 4 -2 25 13 46 36 36 38 41 40 96 40 56 0 58 -1 51 -22 -4 -13
-22 -51 -40 -85 -44 -84 -39 -103 32 -103 l54 0 0 -34 0 -34 75 -7 c41 -3 78
-4 84 -1 5 3 32 -4 60 -15 39 -17 51 -27 51 -43 0 -50 -12 -66 -60 -83 -48
-17 -48 -17 -55 -71 -5 -41 -3 -57 7 -63 25 -16 57 -9 100 24 24 17 58 40 75
50 39 22 199 64 316 84 l89 15 38 -27 c41 -28 80 -51 140 -81 26 -13 77 -19
205 -25 94 -5 177 -10 185 -11 8 -2 48 1 89 5 74 8 144 30 211 66 19 10 46 22
60 26 14 4 39 18 57 31 17 13 40 24 50 24 37 0 182 157 230 249 17 33 19 33
70 28 54 -6 162 -28 248 -52 141 -39 201 -55 207 -55 12 0 -35 158 -63 211
-19 38 -17 49 11 49 18 0 120 89 120 104 0 5 7 18 16 28 16 16 15 19 -7 38
-13 12 -36 26 -50 33 -26 12 -99 91 -99 107 0 5 -3 15 -6 24 -5 14 9 16 117
16 151 1 245 18 241 44 -4 22 -57 97 -105 148 l-37 41 35 34 c19 19 35 37 35
42 0 4 16 25 35 47 19 21 35 44 35 51 0 7 6 16 14 20 15 9 40 53 30 53 -4 0
-63 -12 -132 -26 -146 -31 -179 -27 -297 32 l-70 34 45 -4 c24 -3 57 -2 72 1
23 5 28 11 28 36 l0 30 97 -6 c75 -5 94 -4 85 5 -7 7 -12 19 -12 27 0 8 -8 24
-19 35 -10 12 -30 41 -44 66 l-26 46 32 16 c18 9 50 19 72 21 22 2 83 19 135
37 52 19 108 38 123 43 15 5 26 11 24 13 -7 8 -153 44 -176 44 l-24 0 21 23
c12 13 22 28 22 34 0 5 9 18 21 29 26 23 79 101 79 116 0 6 10 21 23 33 27 28
87 109 87 119 0 4 14 28 31 52 32 47 104 195 121 249 19 62 48 213 54 286 6
69 4 81 -21 138 -18 39 -44 76 -72 100 -37 33 -52 40 -107 45 -35 4 -92 4
-127 0 -73 -7 -256 -72 -342 -121 -33 -18 -65 -33 -72 -33 -7 0 -24 -9 -38
-20 -13 -11 -47 -31 -73 -45 -27 -15 -83 -48 -124 -75 -82 -54 -150 -89 -192
-97 -21 -4 -29 -1 -34 13 -26 76 -298 675 -330 726 -13 21 -24 41 -24 46 0 4
-15 30 -33 58 -19 28 -36 57 -39 65 -8 20 -147 189 -156 189 -4 0 -20 13 -37
28 -41 38 -174 101 -238 112 -29 5 -76 14 -106 19 -60 12 -70 12 -126 0z m874
-1739 c16 -63 38 -140 49 -170 40 -111 73 -230 79 -282 4 -39 -3 -91 -26 -192
-17 -77 -30 -144 -28 -150 2 -6 14 13 27 42 13 28 25 50 28 47 2 -2 -1 -35 -8
-72 -7 -37 -14 -82 -15 -99 -2 -18 -11 -43 -20 -57 -9 -14 -17 -39 -17 -56 -1
-18 -11 -42 -24 -56 -12 -13 -29 -34 -38 -46 -15 -22 -16 -22 -22 -3 -43 132
-138 234 -231 249 l-38 6 38 -21 c20 -11 37 -24 37 -28 0 -4 14 -16 31 -26 16
-10 35 -28 40 -39 5 -12 21 -37 34 -56 14 -19 25 -37 25 -42 0 -12 -123 32
-137 49 -9 11 -24 13 -57 10 -41 -5 -44 -4 -36 13 33 61 -17 155 -93 174 -41
11 -35 -18 6 -33 42 -15 64 -72 46 -119 -10 -27 -11 -27 -21 -8 -16 31 -39 45
-74 45 -38 0 -56 -15 -73 -62 -28 -74 -49 -84 -63 -31 -14 53 -31 52 -23 -1 7
-46 7 -46 -21 -46 -23 0 -32 7 -44 33 -13 29 -20 32 -62 35 -46 3 -48 2 -62
-33 -12 -29 -20 -36 -38 -33 -27 4 -40 52 -31 112 5 34 4 39 -11 33 -10 -4
-24 -7 -32 -7 -8 0 -18 -10 -23 -22 -7 -20 -9 -18 -15 16 -7 36 -44 86 -65 86
-5 0 -3 -12 4 -27 27 -55 40 -122 28 -143 -22 -34 -55 -144 -58 -190 -2 -33
-13 -61 -42 -103 -37 -56 -38 -60 -32 -120 3 -34 5 -63 4 -65 -1 -1 -25 -5
-52 -8 -37 -5 -60 -1 -94 14 -45 21 -93 60 -55 46 24 -9 19 7 -13 41 -45 46
-125 215 -136 285 -3 14 -13 43 -25 65 -11 21 -20 45 -20 53 0 7 -9 31 -20 53
-12 22 -18 44 -14 50 7 11 -10 55 -72 187 -29 62 -34 83 -34 145 1 58 3 68 12
52 17 -32 40 -55 48 -50 4 3 4 21 0 41 -10 43 5 147 26 186 17 31 17 38 4 38
-13 0 -72 -66 -84 -94 -7 -16 -12 9 -22 94 -7 63 -13 120 -13 127 -1 8 50 11
181 12 100 0 200 3 222 6 23 3 97 10 166 15 69 6 135 13 148 16 18 5 24 0 37
-30 21 -49 19 -93 -6 -132 -19 -32 -51 -45 -63 -26 -3 4 -1 25 4 45 9 41 -7
68 -38 66 -15 -1 -15 -2 1 -6 11 -3 17 -14 17 -33 0 -48 -8 -59 -43 -55 -18 2
-74 9 -126 16 -73 9 -103 8 -140 -2 -84 -23 -148 -83 -126 -118 9 -16 35 -13
100 9 32 11 81 20 109 19 l51 -1 -45 -14 c-58 -18 -112 -45 -126 -64 -7 -8
-18 -38 -25 -68 -7 -29 -16 -55 -21 -58 -11 -7 -10 -24 2 -24 5 0 19 18 30 41
16 31 25 39 38 33 55 -23 91 -33 118 -34 33 0 120 26 144 44 40 30 58 35 64
21 7 -20 26 -19 26 1 0 36 -33 84 -66 96 l-34 12 38 21 c21 13 41 18 47 13 19
-17 42 -7 84 36 41 42 43 46 42 102 -1 33 -2 70 -4 84 -2 22 3 26 68 41 39 9
73 14 76 10 4 -3 12 -42 18 -85 6 -44 12 -81 14 -82 1 -1 39 -5 85 -8 69 -6
82 -5 82 8 0 16 -13 21 -81 31 l-46 6 -6 59 c-4 32 -8 64 -9 70 -2 7 42 26
107 46 99 30 181 57 285 95 41 14 82 32 165 70 l60 27 7 -26 c5 -15 21 -79 37
-142z m-1189 -441 c0 -11 4 -29 10 -39 8 -15 5 -19 -14 -24 -31 -8 -115 4
-123 17 -11 18 65 63 115 66 6 1 12 -8 12 -20z m1489 -218 c5 -23 6 -61 3 -84
-6 -41 -6 -40 -23 43 -10 47 -18 94 -19 105 0 19 0 19 15 -1 8 -12 19 -40 24
-63z m96 -89 c-3 -51 -13 -117 -21 -148 -8 -30 -14 -65 -14 -78 0 -12 -6 -30
-13 -40 -12 -16 -16 -5 -34 90 l-21 109 23 25 c28 30 44 84 38 127 -5 32 -5
32 22 20 l27 -12 -7 -93z m-2026 -316 c6 -27 10 -51 7 -53 -10 -11 -46 88 -45
128 l0 44 13 -35 c7 -19 18 -57 25 -84z m757 -9 c11 -12 24 -25 29 -29 13 -10
-13 -28 -42 -28 -12 0 -28 -6 -35 -13 -7 -7 -25 -21 -40 -31 l-27 -18 9 32 c8
29 30 80 63 149 12 23 12 23 18 -8 4 -18 15 -42 25 -54z m-806 -17 c16 -20 39
-42 53 -49 25 -13 34 -34 61 -146 9 -33 19 -71 22 -85 l7 -24 -44 26 c-24 14
-49 35 -55 47 -6 12 -20 32 -31 44 -11 12 -39 57 -62 101 -43 82 -43 82 -3
124 6 7 13 19 13 25 1 7 4 3 6 -8 3 -11 18 -36 33 -55z m933 -7 c-7 -2 -19 -2
-25 0 -7 3 -2 5 12 5 14 0 19 -2 13 -5z m532 -216 c19 -10 18 -11 -10 -23 -16
-7 -38 -13 -47 -14 -10 0 -35 -6 -55 -14 -106 -40 -182 -55 -313 -59 -74 -3
-144 -9 -154 -13 -14 -5 -17 -4 -12 4 4 7 14 12 21 12 8 0 38 11 67 24 32 14
83 26 128 30 46 4 95 16 128 31 37 17 72 25 108 25 32 0 54 4 54 11 0 12 52 3
85 -14z m89 -62 c34 -31 33 -71 -2 -111 -36 -41 -78 -68 -128 -82 -51 -15
-158 -16 -149 -2 3 6 20 10 37 10 17 0 49 9 72 21 53 26 123 85 114 95 -4 4
-19 -5 -32 -19 -14 -15 -33 -27 -43 -27 -10 0 -26 -7 -36 -15 -18 -13 -52 -20
-232 -46 -38 -6 -88 -17 -110 -25 -53 -18 -103 -18 -195 2 -41 9 -85 18 -97
20 -53 10 -9 51 78 73 119 30 172 34 235 15 71 -20 134 -13 186 21 21 14 44
25 51 25 7 0 17 4 23 9 18 17 140 60 170 61 19 0 41 -9 58 -25z m-767 -206
c77 -34 134 -49 188 -50 44 0 47 -2 25 -10 -48 -19 -154 1 -215 40 -22 14 -49
29 -60 33 -15 5 -16 6 -3 7 9 1 38 -8 65 -20z m333 -23 c-14 -8 -41 -16 -60
-20 -29 -5 -26 -2 15 13 59 23 81 26 45 7z"/>
<path d="M2955 2760 c-3 -5 -15 -10 -25 -10 -21 0 -119 -85 -109 -94 6 -6 103
32 144 56 12 7 52 11 95 10 64 -2 72 0 60 12 -33 30 -151 49 -165 26z"/>
<path d="M2925 2620 c-60 -26 -105 -40 -135 -40 -25 0 -52 -5 -60 -10 -13 -8
-13 -13 0 -37 14 -24 23 -29 75 -34 33 -3 55 -6 48 -7 -7 -1 -27 -23 -44 -49
-18 -27 -36 -49 -41 -51 -11 -5 -10 -22 0 -22 5 0 30 20 56 45 62 58 98 61
113 10 l11 -35 -66 0 c-94 0 -66 -22 36 -28 65 -4 86 -1 125 17 26 12 54 33
63 46 19 29 29 26 38 -11 6 -22 1 -33 -25 -60 -18 -19 -39 -34 -46 -34 -7 0
-13 -7 -13 -15 0 -19 1 -19 52 7 70 35 77 44 71 91 -7 55 -35 99 -76 122 -31
16 -41 17 -97 6 -34 -7 -64 -11 -66 -9 -8 9 81 68 102 68 12 0 32 8 45 19 20
16 21 21 10 35 -22 26 -79 18 -176 -24z"/>
<path d="M2576 2438 c-9 -12 -16 -32 -16 -43 0 -23 26 -65 41 -65 9 0 6 117
-4 126 -3 3 -12 -5 -21 -18z"/>
<path d="M2696 2425 c-22 -52 -21 -127 2 -148 10 -10 21 -17 24 -17 5 0 10 76
9 149 0 52 -17 60 -35 16z"/>
<path d="M3164 2327 c-85 -45 -143 -114 -159 -188 -9 -39 9 -37 25 2 11 26 37
54 141 151 10 9 32 24 48 33 17 8 31 18 31 20 0 12 -49 2 -86 -18z"/>
<path d="M2438 2300 c-39 -61 -46 -141 -17 -177 19 -22 31 -15 24 16 -3 16 -1
56 5 89 7 32 10 68 8 78 -3 17 -5 17 -20 -6z"/>
<path d="M3290 2300 c39 -20 50 -19 30 5 -7 8 -24 15 -39 15 -25 -1 -25 -1 9
-20z"/>
<path d="M3190 2271 c0 -5 14 -14 30 -20 33 -11 41 2 11 19 -24 12 -41 13 -41
1z"/>
<path d="M2662 2221 c10 -20 28 -62 39 -93 26 -72 44 -77 36 -9 -6 54 -47 126
-76 134 -17 4 -17 2 1 -32z"/>
<path d="M2227 2186 c-53 -61 -59 -79 -25 -74 22 3 77 71 78 96 0 21 -24 12
-53 -22z"/>
<path d="M1793 2054 l-28 -25 25 7 c24 6 40 21 40 37 0 12 -8 8 -37 -19z"/>
<path d="M2410 2029 c0 -51 45 -139 71 -139 9 0 25 -3 35 -7 12 -4 5 9 -19 39
-20 25 -37 55 -37 67 0 27 -27 81 -40 81 -6 0 -10 -19 -10 -41z"/>
<path d="M1830 2005 c-7 -9 -11 -18 -8 -21 8 -7 58 14 58 26 0 15 -36 12 -50
-5z"/>
</g>
</svg>
